<?xml version="1.0" encoding="UTF-8" standalone="no"?>
<!-- Created with Inkscape (http://www.inkscape.org/) -->

<svg
  xmlns:dc="http://purl.org/dc/elements/1.1/"
  xmlns:cc="http://creativecommons.org/ns#"
  xmlns:rdf="http://www.w3.org/1999/02/22-rdf-syntax-ns#"
  xmlns:svg="http://www.w3.org/2000/svg"
  xmlns="http://www.w3.org/2000/svg"
  xmlns:sodipodi="http://sodipodi.sourceforge.net/DTD/sodipodi-0.dtd"
  xmlns:inkscape="http://www.inkscape.org/namespaces/inkscape"
  width="2400"
  height="2400"
  viewBox="0 0 2400 2399.999999999999"
  version="1.1"
  id="svg8"
  inkscape:version="0.92.2 (5c3e80d, 2017-08-06)"
  sodipodi:docname="math.svg">
 <defs
   id="defs2" />
 <sodipodi:namedview
   id="base"
   pagecolor="#003af6"
   bordercolor="#ffffff"
   borderopacity="1"
   inkscape:pageopacity="0.7450980392"
   inkscape:pageshadow="2"
   inkscape:zoom="0.2208333333333333"
   inkscape:cx="1200"
   inkscape:cy="1200"
   inkscape:document-units="px"
   inkscape:current-layer="layer1"
   showgrid="false"
   units="px"
   guidecolor="#00ffe4"
   guideopacity="1"
   guidehicolor="#f000ff"
   guidehiopacity="1"
   inkscape:pagecheckerboard="true"
   borderlayer="true"
   inkscape:showpageshadow="false"
   inkscape:snap-global="false"
   showguides="true"
   inkscape:guide-bbox="true"
   inkscape:snap-smooth-nodes="true"
   inkscape:window-width="1366"
   inkscape:window-height="705"
   inkscape:window-x="-8"
   inkscape:window-y="-8"
   inkscape:window-maximized="1" />
 <metadata
   id="metadata5">
  <rdf:RDF>
   <cc:Work
     rdf:about="">
    <dc:format>image/svg+xml</dc:format>
    <dc:type
      rdf:resource="http://purl.org/dc/dcmitype/StillImage" />
    <dc:title></dc:title>
    <dc:date>2018</dc:date>
    <dc:creator>
     <cc:Agent>
      <dc:title>Lazur URH</dc:title>
     </cc:Agent>
    </dc:creator>
   </cc:Work>
  </rdf:RDF>
 </metadata>
 <g
   inkscape:label="Layer 1"
   inkscape:groupmode="layer"
   id="layer1"
   transform="translate(0,1277.480346679687)">
  <path
    style="color:#000000;clip-rule:nonzero;display:inline;overflow:visible;visibility:visible;opacity:1;isolation:auto;mix-blend-mode:normal;color-interpolation:sRGB;color-interpolation-filters:linearRGB;solid-color:#000000;solid-opacity:1;vector-effect:none;fill:#ffffff;fill-opacity:1;fill-rule:nonzero;stroke:none;stroke-width:1;stroke-linecap:butt;stroke-linejoin:miter;stroke-miterlimit:4;stroke-dasharray:none;stroke-dashoffset:0;stroke-opacity:1;marker:none;paint-order:markers stroke fill;color-rendering:auto;image-rendering:auto;shape-rendering:auto;text-rendering:auto;enable-background:accumulate"
    d="m 0,-1277.480346679687 h 2400 v 2399.999999999999 h -2400 z"
    id="rect4593"
    inkscape:connector-curvature="0" />
  <path
    style="fill:#02599c;fill-opacity:1"
    d="m -105.6848114414984,-1277.480346679687 v 94.283203125 h 67.67773437499997 c 70.3763670649383,0 91.59765625000001,30.664634740682 91.59765625000002,130.158203125 v 719.26171875 c 0,121.7203192282591 -29.19165868301945,162.013671875 -159.275390625,162.013671875 v 94.28320312500012 h 452.236328125 v -94.28320312500012 c -98.9440074242605,0 -165.984375,-28.5570738601039 -165.984375,-166.205078125 v -646.92578125 l 349.6191406249998,813.130859375 h 142.140625 l 343.6328124999996,-817.447265625 v 685.611328125 c 0,98.539395116515 -50.160528919333,131.8359375 -160.1152343749996,131.8359375 v 94.28320312500012 h 656.7812499999995 v -94.28320312500012 c -116.756950855468,0 -160.115234375,-36.5213559324161 -160.115234375,-131.8359375 v -749.439453125 c 0,-88.675502771661 42.175586201715,-130.158203125 160.115234375,-130.158203125 v -94.283203125 h -515.5605468749995 l -287.814453125,699.19921875 -297.9824218749998,-699.19921875 z"
    id="path4550"
    inkscape:connector-curvature="0" />
  <path
    d="m 2350.625938495319,-303.195190429686 -319.126953125,-974.285156249998 h -281.19140625 l -318.40625,974.2851562499989 c -10.388937262941,31.7889091828303 -38.787993477948,73.5622311504531 -65.198426387654,96.0976469897121 -35.747666275231,30.5026626238812 -62.277962370345,35.1566323907921 -104.149229862346,41.4687592602879 v 88.14843750000032 h 432.873046875 v -90.22070312500032 c -48.002387412776,0 -85.233306375037,-0.769719361949 -117.043973093364,-19.2007756938269 -42.448788312518,-24.5947692808727 -25.950541790565,-80.6440053054831 -14.354464406636,-116.2933649311731 l 44.685546875,-137.375 h 358.482421875 l 44.076171875,137.375 c 23.618291351374,73.6126264231041 24.812442813377,99.3578746052019 -1.484006639827,118.0385753187899 -24.87134157341,17.6683201701867 -63.319690051497,15.2036121812098 -102.617555860173,15.2036121812098 v 92.47265625000024 l 603.571529176243,-8.88e-12 v -90.07421875000025 c -29.710697176129,-2.0709272255057 -69.469963204765,-6.268533452763 -91.203365113743,-23.9042968749911 -21.822492685229,-17.7080569296888 -44.23374536842,-36.3910307534018 -68.9130859375,-111.7363281250006 z m -561.44140625,-692.1874999999986 138.58203125,431.91796875 h -279.078125 z"
    id="path4554"
    inkscape:connector-curvature="0"
    sodipodi:nodetypes="sccssccccssccssccccsscccc"
    style="fill:#02599c;fill-opacity:1" />
  <path
    inkscape:connector-curvature="0"
    d="m 418.1395097664762,1189.187300510645 66.6676471903348,-66.667647190333 c -87.1430567567906,-87.143056756791 -91.5268120587395,-156.4889991138716 -30.7851970367136,-217.2306141358979 l 597.6669381012856,-597.6669381012857 77.810473425979,77.8104734259763 c 105.251382612274,105.2513826122701 84.807163274118,249.0328109623777 -4.38987903022,338.2298532667163 l 61.137935275603,61.1379352756014 262.280709731112,-262.2807097311112 -848.5281374238581,-848.5281374238569 -262.2807097311106,262.28070973111243 64.0927633803861,64.0927633803860317 c 113.5692528154045,-113.5692528154045675 242.53072063394,-100.0890116630241664 335.2750251619307,-7.3447071350167343 l 77.2173896486738,77.217389648688367 -597.6669381012858,597.66693810128583 c -59.7118281571667,59.7118281571669 -139.65371799130579,46.7916991078821 -216.6375303585932670102920383214,-30.1921132594057 l -66.667647190334704987435543444,66.6676471903351 z"
    id="path4564"
    sodipodi:nodetypes="ccscsccccccscsccc"
    style="fill:#02599c;fill-opacity:1" />
  <path
    inkscape:connector-curvature="0"
    d="m 1091.493659961801,-77.48034667968704 v 94.28229082807591 c 130.798252379853,0 160.114578847848,25.08158495030172 160.114578847848,131.83494654859293 v 747.7636530432653 c 0,92.4176922536559 -46.996916856648,131.8368187519888 -160.114578847848,131.8368187519888 v 94.282290828076 h 657.620803924138 v -94.282290828076 c -111.778644208891,0 -160.953325969334,-27.171229540199 -160.953325969334,-131.8368187519889 v -320.4519498998368 l 425.913773675151,-8.2e-12 v 320.4519498998368 c 0,105.3561769028912 -38.611230075308,131.8368187519902 -160.114578847844,131.8368187519902 v 94.282290828076 h 656.782056802651 v -94.282290828076 c -113.730038877557,0 -160.116451051244,-41.5729777664631 -160.116451051244,-131.8368187519902 v -747.7636530432646 c 0,-104.89751859185254 36.592087438989,-131.83494654859262 160.116451051244,-131.83494654859262 v -94.28229082807587 h -656.78205680265 v 94.28229082807587 c 132.111084937867,0 154.541220161114,38.08921189022886 160.114578847841,131.83494654859262 v 290.2757755602571 l -425.91377367515,7.8e-12 v -290.2757755602576 c 0,-103.77044380171483 25.49979681576,-131.83494654859254 160.953325969341,-131.83494654859254 v -94.28229082807567 z"
    id="path4580"
    sodipodi:nodetypes="ccssccccsccsccccssccccsccsccc"
    style="fill:#02599c;fill-opacity:1" />
 </g>
</svg>
